<svg xmlns="http://www.w3.org/2000/svg" fill="none" viewBox="0 0 24 24">
    <path stroke="currentColor" stroke-linecap="round" stroke-linejoin="round" d="M5.08 12H1.26M22.738 12H10.006M13.994 20.117H1.261M22.738 20.117H18.92M13.994 4.023H1.261M22.738 4.023H18.92" stroke-width="1.5"/>
    <path stroke="currentColor" d="M5.08 12.002a2.463 2.463 0 1 0 4.926 0 2.463 2.463 0 1 0-4.926 0M13.994 20.119a2.463 2.463 0 1 0 4.926 0 2.463 2.463 0 1 0-4.926 0M13.994 3.885a2.463 2.463 0 1 0 4.926 0 2.463 2.463 0 1 0-4.926 0" stroke-width="1.5"/>
</svg>
