<svg xmlns="http://www.w3.org/2000/svg" viewBox="0 0 24 24">
    <g fill="none" stroke="currentColor" stroke-linecap="round" stroke-linejoin="round" stroke-width="1.5">
        <path d="M17.86 5.57A1.61 1.61 0 0 1 19.47 4h0a1.6 1.6 0 0 1 1.6 1.61v12.15a5.47 5.47 0 0 1-1.6 3.88h0a5.5 5.5 0 0 1-3.88 1.61h-3.13a6.42 6.42 0 0 1-5.35-2.86L3.2 14.52a1.65 1.65 0 0 1 0-1.83h0a1.65 1.65 0 0 1 2.4-.37l2.62 2.09V4a1.6 1.6 0 0 1 1.6-1.6h0A1.61 1.61 0 0 1 11.43 4V2.36A1.61 1.61 0 0 1 13 .75h0a1.61 1.61 0 0 1 1.61 1.61V4a1.6 1.6 0 0 1 1.6-1.6h0A1.61 1.61 0 0 1 17.86 4ZM11.43 3.96v6.43M14.65 3.96v6.43M17.86 10.39V5.57"/>
    </g>
</svg>
