<svg xmlns="http://www.w3.org/2000/svg" fill="none" viewBox="0 0 24 24" id="Task-List-Heart--Streamline-Ultimate">
  <desc>
    Task List Heart Streamline Icon: https://streamlinehq.com
  </desc>
  <path stroke="currentColor" stroke-linecap="round" stroke-linejoin="round" d="m17.2501 23.25 -5.114 -5.335c-0.4491 -0.4489 -0.7455 -1.0277 -0.8472 -1.6545 -0.1018 -0.6267 -0.0038 -1.2696 0.2802 -1.8375 0.2144 -0.4288 0.5277 -0.8004 0.914 -1.0844 0.3863 -0.284 0.8345 -0.4721 1.3078 -0.5488 0.4732 -0.0768 0.958 -0.04 1.4142 0.1073 0.4562 0.1473 0.8709 0.4009 1.21 0.7399l0.835 0.835 0.835 -0.835c0.339 -0.339 0.7537 -0.5926 1.2099 -0.7399 0.4563 -0.1473 0.941 -0.1841 1.4142 -0.1073 0.4733 0.0767 0.9215 0.2648 1.3078 0.5488 0.3863 0.284 0.6996 0.6556 0.9141 1.0844v0c0.2839 0.5679 0.3819 1.2108 0.2802 1.8375 -0.1018 0.6268 -0.3982 1.2056 -0.8472 1.6545l-5.114 5.335Z" stroke-width="1.5"></path>
  <path stroke="currentColor" stroke-linecap="round" stroke-linejoin="round" d="M5.25 10.511h5.25" stroke-width="1.5"></path>
  <path stroke="currentColor" stroke-linecap="round" stroke-linejoin="round" d="M5.25 14.261H7.5" stroke-width="1.5"></path>
  <path stroke="currentColor" stroke-linecap="round" stroke-linejoin="round" d="M5.25 18.011H7.5" stroke-width="1.5"></path>
  <path stroke="currentColor" stroke-linecap="round" stroke-linejoin="round" d="M9.75 23.25h-7.5c-0.39782 0 -0.77936 -0.158 -1.06066 -0.4393C0.908035 22.5294 0.75 22.1478 0.75 21.75V6c0 -0.39782 0.158035 -0.77936 0.43934 -1.06066C1.47064 4.65804 1.85218 4.5 2.25 4.5H6c0 -0.99456 0.39509 -1.94839 1.09835 -2.65165S8.75544 0.75 9.75 0.75c0.9946 0 1.9484 0.39509 2.6517 1.09835C13.1049 2.55161 13.5 3.50544 13.5 4.5h3.75c0.3978 0 0.7794 0.15804 1.0607 0.43934S18.75 5.60218 18.75 6v2.25" stroke-width="1.5"></path>
  <path stroke="currentColor" d="M9.75 4.51099c-0.20711 0 -0.375 -0.1679 -0.375 -0.375 0 -0.20711 0.16789 -0.375 0.375 -0.375" stroke-width="1.5"></path>
  <path stroke="currentColor" d="M9.75 4.51099c0.20711 0 0.375 -0.1679 0.375 -0.375 0 -0.20711 -0.16789 -0.375 -0.375 -0.375" stroke-width="1.5"></path>
</svg>