<svg xmlns="http://www.w3.org/2000/svg" fill="none" viewBox="0 0 14 14">
  <g id="lighting-decorative-ceiling-lamp--lighting-decorative-ceiling-lamp-hanging">
    <path id="Vector_2" stroke="currentColor" stroke-linecap="round" stroke-linejoin="round" d="M6.99987 3.21094c3.90333 0 6.21073 2.25357 6.49593 6.29269 0.0353 0.49967 -0.3393 0.92357 -0.8367 0.98267 -1.3133 0.1558 -3.84632 0.4253 -5.65923 0.4253s-4.34588 -0.2695 -5.65924 -0.4253c-0.497398 -0.0591 -0.872005 -0.483 -0.836716 -0.98267C0.789191 5.46451 3.09656 3.21094 6.99987 3.21094Z" stroke-width="1"></path>
    <path id="Vector 4202" stroke="currentColor" stroke-linecap="round" stroke-linejoin="round" d="M7 3.20993 7 0.501953" stroke-width="1"></path>
    <path id="Subtract" stroke="currentColor" stroke-linecap="round" stroke-linejoin="round" d="M5.07405 10.8379c-0.04902 0.199 -0.07405 0.4186 -0.07405 0.6577 0 1.2823 0.72 2.0036 2 2.0036s2 -0.7213 2 -2.0036c0 -0.2391 -0.02503 -0.4587 -0.07405 -0.6577 -0.67367 0.0437 -1.33778 0.072 -1.92608 0.072 -0.58822 0 -1.25225 -0.0283 -1.92582 -0.072Z" stroke-width="1"></path>
  </g>
</svg>