<?xml version="1.0" encoding="UTF-8"?>
<svg id="Sign-Badge-Circle--Streamline-Ultimate" xmlns="http://www.w3.org/2000/svg" version="1.1" viewBox="0 0 24 24">
  <!-- Generator: Adobe Illustrator 30.2.1, SVG Export Plug-In . SVG Version: 2.1.1 Build 1)  -->
  <defs>
    <style>
      .st0 {
        fill: none;
        stroke: #000;
        stroke-linecap: round;
        stroke-linejoin: round;
        stroke-width: 1.5px;
      }
    </style>
  </defs>
  <g>
    <path class="st0" d="M2,19.2c0,1.4,1.1,2.5,2.5,2.5s2.5-1.1,2.5-2.5-1.1-2.5-2.5-2.5-2.5,1.1-2.5,2.5Z"/>
    <path class="st0" d="M9.5,19.2c0,1.4,1.1,2.5,2.5,2.5s2.5-1.1,2.5-2.5-1.1-2.5-2.5-2.5-2.5,1.1-2.5,2.5Z"/>
    <path class="st0" d="M17,19.2c0,1.4,1.1,2.5,2.5,2.5s2.5-1.1,2.5-2.5-1.1-2.5-2.5-2.5-2.5,1.1-2.5,2.5Z"/>
  </g>
  <g>
    <path class="st0" d="M5.7,12c0,1.4,1.1,2.5,2.5,2.5s2.5-1.1,2.5-2.5-1.1-2.5-2.5-2.5-2.5,1.1-2.5,2.5Z"/>
    <path class="st0" d="M13.2,12c0,1.4,1.1,2.5,2.5,2.5s2.5-1.1,2.5-2.5-1.1-2.5-2.5-2.5-2.5,1.1-2.5,2.5Z"/>
  </g>
  <path class="st0" d="M9.5,4.8c0,1.4,1.1,2.5,2.5,2.5s2.5-1.1,2.5-2.5-1.1-2.5-2.5-2.5-2.5,1.1-2.5,2.5Z"/>
</svg>