<svg viewBox="0 0 24 24" xmlns="http://www.w3.org/2000/svg">
    <path d="M5.25 17.249h-3a1.5 1.5 0 0 1-1.5-1.5v-7.5a1.5 1.5 0 0 1 1.5-1.5h19.5a1.5 1.5 0 0 1 1.5 1.5v7.5a1.5 1.5 0 0 1-1.5 1.5h-3M3.75 9.749h1.5" fill="none" stroke="currentColor" stroke-linecap="round" stroke-linejoin="round" stroke-width="1.5"/>
    <path d="M5.25 12.749h13.5v10.5H5.25zM18.75 6.749H5.25v-4.5a1.5 1.5 0 0 1 1.5-1.5h10.5a1.5 1.5 0 0 1 1.5 1.5ZM8.25 15.749h7.5M8.25 18.749h5.25" fill="none" stroke="currentColor" stroke-linecap="round" stroke-linejoin="round" stroke-width="1.5"/>
</svg>
