<svg xmlns="http://www.w3.org/2000/svg" fill="none" viewBox="0 0 24 24">
    <path stroke="currentColor" stroke-linecap="round" stroke-linejoin="round" d="M6 19.125h9.921a1.5 1.5 0 0 0 1.479-1.25l2.637-15.5a1.5 1.5 0 0 1 1.479-1.247h.984" stroke-width="1.5"/>
    <path stroke="currentColor" d="M7.875 22.125a.375.375 0 0 1 0-.75M7.875 22.125a.375.375 0 0 0 0-.75M15.375 22.125a.375.375 0 0 1 0-.75M15.375 22.125a.375.375 0 0 0 0-.75" stroke-width="1.5"/>
    <path stroke="currentColor" stroke-linecap="round" stroke-linejoin="round" d="M17.953 14.625H5.882a3 3 0 0 1-2.91-2.272l-1.45-5.8a.75.75 0 0 1 .728-.932h17.234" stroke-width="1.5"/>
</svg>
