<svg xmlns="http://www.w3.org/2000/svg" fill="none" viewBox="0 0 24 24" id="Shellfish-Shrimp--Streamline-Ultimate">
  <desc>
    Shellfish Shrimp Streamline Icon: https://streamlinehq.com
  </desc>
  <path stroke="currentColor" stroke-linecap="round" stroke-linejoin="round" d="M10.7129 10.5c1.1935 0 2.3381 0.4741 3.182 1.318 0.8439 0.8439 1.318 1.9885 1.318 3.182s-0.4741 2.338 -1.318 3.182c-0.8439 0.8439 -1.9885 1.318 -3.182 1.318h-0.74996v-1.368c-0.00027 -0.1173 -0.02795 -0.2328 -0.08084 -0.3375 -0.05288 -0.1046 -0.12951 -0.1955 -0.22375 -0.2652 -0.09425 -0.0698 -0.2035 -0.1166 -0.31904 -0.1366 -0.11553 -0.02 -0.23415 -0.0127 -0.34637 0.0213 -0.61635 0.1611 -1.15683 0.533 -1.52763 1.051 -0.37081 0.5181 -0.54855 1.1496 -0.50236 1.785 -0.56531 0.0451 -1.10656 0.2482 -1.56202 0.5861s-0.80681 0.797 -1.01398 1.3249c-0.05793 0.1143 -0.0856 0.2416 -0.08035 0.3697 0.00524 0.128 0.04323 0.2526 0.11032 0.3619 0.0671 0.1092 0.16107 0.1994 0.27294 0.2619 0.11187 0.0626 0.23791 0.0955 0.36609 0.0955l7.15695 0c1.1819 0 2.3522 -0.2328 3.4442 -0.6851 1.0919 -0.4523 2.0841 -1.1152 2.9198 -1.951 0.8357 -0.8357 1.4986 -1.8278 1.9509 -2.9198 0.4523 -1.0919 0.6851 -2.2622 0.6851 -3.4441 0 -1.1819 -0.2328 -2.3522 -0.6851 -3.4442 -0.4523 -1.09188 -1.1152 -2.08403 -1.9509 -2.91976 -0.8357 -0.83572 -1.8279 -1.49865 -2.9198 -1.95095 -1.092 -0.45229 -2.2623 -0.68508 -3.4442 -0.68508H3.54196c-0.12492 -0.00068 -0.24803 0.02981 -0.35819 0.08871 -0.11016 0.05889 -0.20389 0.14434 -0.2727 0.2486 -0.06881 0.10425 -0.11052 0.22403 -0.12137 0.34847 -0.01084 0.12445 0.00952 0.24963 0.05926 0.36422 0.658 1.527 2.19299 4.19999 4.86399 4.19999h2.99995Z" stroke-width="1.5"></path>
  <path stroke="currentColor" stroke-linecap="round" stroke-linejoin="round" d="M13.931 11.855 11.463 13.5" stroke-width="1.5"></path>
  <path stroke="currentColor" stroke-linecap="round" stroke-linejoin="round" d="M15.102 5.72412c1.583 3.95799 -0.914 5.34598 -1.7 5.66698" stroke-width="1.5"></path>
  <path stroke="currentColor" stroke-linecap="round" stroke-linejoin="round" d="M15.213 15c0.868 0.6255 1.9098 0.964 2.9797 0.9683 1.0698 0.0043 2.1143 -0.3258 2.9873 -0.9443" stroke-width="1.5"></path>
  <path stroke="currentColor" stroke-linecap="round" stroke-linejoin="round" d="M12.37 19.1851c-0.2972 0.6324 -0.4643 1.3182 -0.4912 2.0165 -0.027 0.6983 0.0866 1.3949 0.3342 2.0484" stroke-width="1.5"></path>
  <path stroke="currentColor" d="M10.3379 8.25c-0.2071 0 -0.37501 -0.16789 -0.37501 -0.375s0.16791 -0.375 0.37501 -0.375" stroke-width="1.5"></path>
  <path stroke="currentColor" d="M10.3379 8.25c0.2071 0 0.375 -0.16789 0.375 -0.375s-0.1679 -0.375 -0.375 -0.375" stroke-width="1.5"></path>
  <path stroke="currentColor" stroke-linecap="round" stroke-linejoin="round" d="M9.21301 5.24999c-0.59674 0 -1.16903 -0.23705 -1.59099 -0.65901 -0.42196 -0.42196 -0.65901 -0.99425 -0.65901 -1.59099 0 -0.59673 0.23705 -1.16903 0.65901 -1.59098C8.04398 0.987052 8.61627 0.75 9.21301 0.75H21.213" stroke-width="1.5"></path>
</svg>