<svg fill="none" height="16" viewBox="0 0 16 16" width="16" xmlns="http://www.w3.org/2000/svg"><path d="m3.5 4c-.27614 0-.5.22386-.5.5v2c0 .27614.22386.5.5.5s.5-.22386.5-.5v-.79289l1.17157 1.17157c1.49087 1.49087 2.32843 3.51292 2.32843 5.62132 0 .2761.22386.5.5.5s.5-.2239.5-.5c0-2.1084.83756-4.13045 2.3284-5.62132l1.1716-1.17157v.79289c0 .27614.2239.5.5.5s.5-.22386.5-.5v-2c0-.27614-.2239-.5-.5-.5h-2c-.2761 0-.5.22386-.5.5s.2239.5.5.5h.7929l-1.1716 1.17157c-.96142.96145-1.68153 2.11912-2.1213 3.37888-.43977-1.25976-1.15988-2.41743-2.12132-3.37888l-1.17157-1.17157h.79289c.27614 0 .5-.22386.5-.5s-.22386-.5-.5-.5z" fill="rgb(0,0,0)"/></svg>