<svg xmlns="http://www.w3.org/2000/svg" fill="none" viewBox="0 0 14 14">
  <g id="sport-water-bottle--sport-water-bottle-pop-pull-up">
    <path id="Subtract" stroke="currentColor" stroke-linecap="round" stroke-linejoin="round" d="M4.30134 12.7343c-0.38892 -1.6188 -0.72798 -3.11998 -0.80055 -4.77347 -0.02049 -0.46682 0.36234 -0.87124 0.61088 -1.26778 0.29083 -0.46403 0.33921 -1.15979 0.08745 -1.6326 -0.14701 -0.27606 -0.35202 -0.55017 -0.3227 -0.86119 0.06461 -0.68552 0.35937 -1.37178 0.85696 -1.67582h4.53324c0.49759 0.30404 0.79238 0.9903 0.85698 1.67582 0.0293 0.31102 -0.17571 0.58513 -0.32272 0.86119 -0.25176 0.47281 -0.20338 1.16857 0.08745 1.6326 0.24857 0.39654 0.63137 0.80096 0.61087 1.26778 -0.0726 1.65349 -0.4116 3.15467 -0.80054 4.77347 -0.10791 0.4492 -0.51213 0.766 -0.97649 0.766H5.27783c-0.46436 0 -0.86858 -0.3168 -0.97649 -0.766Z" stroke-width="1"></path>
    <path id="Intersect" stroke="currentColor" stroke-linecap="round" stroke-linejoin="round" d="M8.46552 0.607309c-1.01386 -0.143079 -1.91993 -0.143079 -2.93378 0" stroke-width="1"></path>
    <path id="Intersect_2" stroke="currentColor" stroke-linecap="round" stroke-linejoin="round" d="M9.5982 5.71805c-1.7966 0.25354 -3.40219 0.25354 -5.19879 0" stroke-width="1"></path>
    <path id="Vector 4172" stroke="currentColor" stroke-linecap="round" stroke-linejoin="round" d="m6.99854 0.5 0 2.02309" stroke-width="1"></path>
  </g>
</svg>