<svg xmlns="http://www.w3.org/2000/svg" fill="none" viewBox="0 0 14 14" id="Health-Care-2--Streamline-Flex">
  <desc>
    Health Care 2 Streamline Icon: https://streamlinehq.com
  </desc>
  <g id="health-care-2--health-medical-hospital-heart-care-symbol">
    <path id="Union" fill="currentColor" fill-rule="evenodd" d="M6.99993 0c-0.69428 0 -1.30729 0.196814 -1.74625 0.635772S4.61791 1.68774 4.61791 2.38202s0.19681 1.30729 0.63577 1.74625c0.43896 0.43896 1.05197 0.63577 1.74625 0.63577s1.30729 -0.19681 1.74625 -0.63577c0.43896 -0.43896 0.63577 -1.05197 0.63577 -1.74625S9.18514 1.07473 8.74618 0.635772C8.30722 0.196814 7.69421 0 6.99993 0ZM5.09854 5.49242c0.71175 0.27046 1.37111 0.75865 1.9017 1.23993 0.53059 -0.48128 1.18995 -0.96947 1.9017 -1.23993 0.44561 -0.16934 0.93187 -0.26108 1.42896 -0.19502 0.5041 0.06699 0.9867 0.29221 1.4207 0.70409l0.0001 0.00009c0.7414 0.70412 0.9247 1.59334 0.7633 2.47659 -0.157 0.85866 -0.6372 1.72153 -1.232 2.48313 -0.5993 0.7674 -1.34291 1.4677 -2.07674 2.0012 -0.72103 0.5242 -1.48454 0.9253 -2.12474 1.0308 -0.05383 0.0089 -0.10874 0.0089 -0.16256 0 -0.6402 -0.1055 -1.40372 -0.5066 -2.12474 -1.0308 -0.73383 -0.5335 -1.47745 -1.2338 -2.07678 -2.0012 -0.59481 -0.7616 -1.07496 -1.62447 -1.23193 -2.48313 -0.16147 -0.88325 0.02185 -1.77247 0.76331 -2.47659l0.0001 -0.00009c0.43396 -0.41188 0.91656 -0.6371 1.42065 -0.70409 0.4971 -0.06606 0.98336 0.02568 1.42897 0.19502Z" clip-rule="evenodd" stroke-width="1"></path>
  </g>
</svg>