<svg xmlns="http://www.w3.org/2000/svg" viewBox="0 0 512 512" id="Facebook--Streamline-Font-Awesome.svg"><desc>Facebook Streamline Icon: https://streamlinehq.com</desc><!--! Font Awesome Free 6.5.2 by @fontawesome - https://fontawesome.com License - https://fontawesome.com/license/free (Icons: CC BY 4.0, Fonts: SIL OFL 1.1, Code: MIT License) Copyright 2024 Fonticons, Inc.--><path d="M506.88 256.931c0 -138.572 -112.308 -250.88 -250.88 -250.88S5.12 118.359 5.12 256.931c0 117.6 81.046 216.384 190.316 243.53V333.567h-51.744v-76.636h51.744v-33.026c0 -85.358 38.612 -124.95 122.5 -124.95 15.876 0 43.316 3.136 54.586 6.272v69.384c-5.88 -0.588 -16.17 -0.98 -29.008 -0.98 -41.16 0 -57.036 15.582 -57.036 56.056v27.244h81.928l-14.112 76.636H286.38v172.382c124.264 -14.994 220.5 -120.736 220.5 -249.018Z" fill="currentColor" stroke-width="1"></path></svg>