<svg xmlns="http://www.w3.org/2000/svg" fill="none" viewBox="0 0 14 14" id="Turtle-Speed-Slow--Streamline-Flex" height="14" width="14">
  <desc>
    Turtle Speed Slow Streamline Icon: https://streamlinehq.com
  </desc>
  <g id="turtle-speed-slow--turtle-speed-slow-animal-test-bandwidth">
    <path id="Union" fill="#000000" fill-rule="evenodd" d="M10.2224 2.4165c0.3789 -0.39517 0.9194 -0.63916 1.5855 -0.63916 0.6892 0 1.2435 0.26122 1.6235 0.67984 0.3769 0.41522 0.5702 0.97154 0.5702 1.54705 0 0.56576 -0.1898 0.97448 -0.5916 1.22301 -0.3272 0.20235 -0.766 0.27786 -1.2669 0.29855 -0.0885 0.51595 -0.2618 1.2991 -0.6166 1.91244 -0.03 0.05178 -0.0615 0.10391 -0.0947 0.15618 -0.1883 -1.46976 -0.7691 -2.76459 -1.81476 -3.71035 0.0259 -0.55091 0.23064 -1.07675 0.60536 -1.46756Zm0.2512 5.62526c0.0221 0.26621 -0.0357 0.52471 -0.158 0.74609 -0.162 0.29322 -0.43718 0.52135 -0.78954 0.61607 -0.05143 0.01383 -0.10588 0.02792 -0.1634 0.04218 -0.73235 0.1816 -1.96264 0.39023 -3.79552 0.41208 -0.10384 0.00124 -0.20961 0.00188 -0.31734 0.00188 -0.21803 0 -0.42807 -0.00262 -0.63026 -0.00752 -1.79951 -0.04368 -2.97776 -0.26898 -3.64599 -0.44862 -0.010216 -0.00275 -0.020368 -0.0056 -0.030454 -0.00857 -0.000185 -0.00006 -0.000371 -0.00011 -0.000556 -0.00017 -0.600064 -0.17693 -0.9670998 -0.74503 -0.9165458 -1.35342C0.145884 6.59896 0.661726 5.41878 1.57924 4.60249 2.4945 3.7882 3.75026 3.38867 5.2498 3.38867c1.49955 0 2.75531 0.39953 3.67057 1.21382 0.18924 0.16836 0.36139 0.35221 0.51651 0.55064 0.59692 0.76366 0.94162 1.74341 1.03672 2.88863ZM0.00836785 10.9343c-0.03302715 -0.2848 0.01783675 -0.5617 0.13365515 -0.804 0.173988 0.1025 0.365327 0.1838 0.571913 0.2393 0.694984 0.1869 1.823724 0.4022 3.472014 0.4694 -0.12362 0.1929 -0.27477 0.3797 -0.46003 0.5437 -0.48002 0.4247 -1.10086 0.6109 -1.41258 0.6925 -0.22455 0.0587 -0.45785 0.1071 -0.69718 0.1369l-0.00105 0.0001 -0.00176 0.0002 -0.00103 0.0001c-0.79858 0.0958 -1.511862 -0.4843 -1.60395215 -1.2782ZM9.78567 10.3696c-0.73741 0.1983 -1.96317 0.4286 -3.77976 0.48 0.12233 0.1891 0.27132 0.3721 0.45321 0.5331 0.48002 0.4247 1.10086 0.6109 1.41258 0.6925 0.22455 0.0587 0.45784 0.1071 0.69718 0.1369l0.00106 0.0001 0.00175 0.0002 0.00103 0.0001c0.79858 0.0958 1.51188 -0.4843 1.60398 -1.2782 0.0272 -0.2346 -0.0025 -0.4638 -0.0786 -0.6728 -0.09973 0.0427 -0.20398 0.079 -0.31243 0.1081Z" clip-rule="evenodd" stroke-width="1"></path>
  </g>
</svg>