<svg xmlns="http://www.w3.org/2000/svg" fill="none" height="14" width="14">
    <path fill="#000" fill-rule="evenodd" d="M6.042.888a1.377 1.377 0 0 1 1.916 0c1.805 1.729 4.712 5.493 5.98 9.7.198.655-.09 1.383-.749 1.675C11.952 12.814 9.726 13.5 7 13.5S2.05 12.814.811 12.263c-.658-.292-.947-1.02-.75-1.676 1.269-4.206 4.177-7.97 5.981-9.7ZM7 3.967a.75.75 0 0 1 .75.75v2.97a.75.75 0 0 1-1.5 0v-2.97a.75.75 0 0 1 .75-.75ZM7 9.28a.75.75 0 0 1 .75.75v.502a.75.75 0 0 1-1.5 0v-.502a.75.75 0 0 1 .75-.75Z" clip-rule="evenodd"/>
</svg>
