<svg xmlns="http://www.w3.org/2000/svg" fill="none" viewBox="0 0 14 14" id="Wrench--Streamline-Flex" height="14" width="14">
  <desc>
    Wrench Streamline Icon: https://streamlinehq.com
  </desc>
  <g id="wrench--crescent-tool-construction-tools-wrench-setting-edit-adjust">
    <path id="Union" fill="#000000" d="M0.865645 13.1344c0.1276 0.1276 0.260585 0.2439 0.395105 0.3513 1.0215 0.8155 2.4695 0.5962 3.36502 -0.2027 0.6245 -0.5572 1.27096 -1.1423 1.90169 -1.773 0.55945 -0.5594 1.08298 -1.1313 1.58297 -1.68915 0.75174 0.30355 1.51372 0.39905 2.25967 0.26115 0.8351 -0.15431 1.606 -0.59293 2.2906 -1.27749 0.706 -0.706 1.1501 -1.50372 1.291 -2.36803 0.1409 -0.86491 -0.0298 -1.74814 -0.4706 -2.61061 -0.2011 -0.39331 -0.7158 -0.45293 -1.0106 -0.15813 -0.2743 0.27429 -0.5461 0.56304 -0.7994 0.83215 -0.1592 0.1691 -0.3112 0.33057 -0.4518 0.4757 -0.3847 0.3971 -0.7164 0.70712 -1.027 0.90989 -0.30518 0.19914 -0.54462 0.26485 -0.75827 0.24291 -0.21513 -0.0221 -0.58337 -0.22448 -0.96062 -0.60173s-0.57976 -0.74553 -0.60186 -0.96067c-0.02195 -0.21365 0.04377 -0.45309 0.24291 -0.75822 0.20277 -0.31069 0.51279 -0.64233 0.90989 -1.02705 0.14513 -0.14061 0.3066 -0.2926 0.4757 -0.45178l0.00025 -0.00023c0.26904 -0.25325 0.5577 -0.52497 0.8319 -0.79917 0.2948 -0.2948 0.2352 -0.809529 -0.1581 -1.01058C9.3116 0.0780904 8.42837 -0.0926018 7.56345 0.0483404 6.69915 0.189185 5.90144 0.633328 5.19543 1.33933 4.51087 2.0239 4.07225 2.79485 3.9179 3.6299c-0.13788 0.74598 -0.04236 1.50795 0.26119 2.2597 -0.5579 0.49998 -1.12971 1.02351 -1.68916 1.58296 -0.63073 0.63073 -1.21582 1.27719 -1.772971 1.90169 -0.7989454 0.89555 -1.018265 2.34355 -0.202748 3.36505 0.107391 0.1345 0.223834 0.2675 0.351434 0.3951Z" stroke-width="1"></path>
  </g>
</svg>